<svg width="8" height="12" viewBox="0 0 8 12" fill="none" xmlns="http://www.w3.org/2000/svg">
<path d="M4 7.63636C4.53043 7.63636 5.03914 7.40649 5.41421 6.99732C5.78929 6.58815 6 6.0332 6 5.45455V2.18182C6 1.60316 5.78929 1.04821 5.41421 0.63904C5.03914 0.22987 4.53043 0 4 0C3.46957 0 2.96086 0.22987 2.58579 0.63904C2.21071 1.04821 2 1.60316 2 2.18182V5.45455C2 6.0332 2.21071 6.58815 2.58579 6.99732C2.96086 7.40649 3.46957 7.63636 4 7.63636ZM3 2.18182C3 1.89249 3.10536 1.61501 3.29289 1.41043C3.48043 1.20584 3.73478 1.09091 4 1.09091C4.26522 1.09091 4.51957 1.20584 4.70711 1.41043C4.89464 1.61501 5 1.89249 5 2.18182V5.45455C5 5.74387 4.89464 6.02135 4.70711 6.22593C4.51957 6.43052 4.26522 6.54545 4 6.54545C3.73478 6.54545 3.48043 6.43052 3.29289 6.22593C3.10536 6.02135 3 5.74387 3 5.45455V2.18182ZM8 5.45455C8 5.30988 7.94732 5.17114 7.85355 5.06885C7.75979 4.96656 7.63261 4.90909 7.5 4.90909C7.36739 4.90909 7.24021 4.96656 7.14645 5.06885C7.05268 5.17114 7 5.30988 7 5.45455C7 6.32253 6.68393 7.15496 6.12132 7.76871C5.55871 8.38247 4.79565 8.72727 4 8.72727C3.20435 8.72727 2.44129 8.38247 1.87868 7.76871C1.31607 7.15496 1 6.32253 1 5.45455C1 5.30988 0.947321 5.17114 0.853553 5.06885C0.759785 4.96656 0.632608 4.90909 0.5 4.90909C0.367392 4.90909 0.240215 4.96656 0.146447 5.06885C0.0526785 5.17114 0 5.30988 0 5.45455C0.000882896 6.51671 0.356861 7.54205 1.0012 8.33835C1.64554 9.13465 2.53399 9.64723 3.5 9.78V10.9091H2.5C2.36739 10.9091 2.24021 10.9666 2.14645 11.0689C2.05268 11.1711 2 11.3099 2 11.4545C2 11.5992 2.05268 11.7379 2.14645 11.8402C2.24021 11.9425 2.36739 12 2.5 12H5.5C5.63261 12 5.75979 11.9425 5.85355 11.8402C5.94732 11.7379 6 11.5992 6 11.4545C6 11.3099 5.94732 11.1711 5.85355 11.0689C5.75979 10.9666 5.63261 10.9091 5.5 10.9091H4.5V9.78C5.46601 9.64723 6.35446 9.13465 6.9988 8.33835C7.64314 7.54205 7.99912 6.51671 8 5.45455Z" fill="white"/>
</svg>
